<?xml version="1.0" encoding="UTF-8"?>
<svg id="Layer_1" data-name="Layer 1" xmlns="http://www.w3.org/2000/svg" viewBox="0 0 1872.41 347.07">
  <defs>
    <style>
      .cls-1 {
        fill: red;
      }
    </style>
  </defs>
  <g>
    <polyline class="cls-1" points="1126.71 346.95 1223.27 346.95 1223.27 97.21 1252.23 97.24 1252.23 346.95 1348.05 346.95 1348.37 97.24 1377.36 97.24 1377.33 346.95 1473.67 346.95 1473.67 0 1126.71 0"/>
    <polyline class="cls-1" points="1872.41 125.45 1622.98 125.39 1623.07 96.41 1872.41 96.47 1872.37 0 1526.23 .1 1526.23 221.34 1775.36 221.34 1775.36 250.32 1526.23 250.28 1526.1 346.95 1872.41 346.95"/>
  </g>
  <g>
    <path class="cls-1" d="M312.93.02v149.81l-174.69,102.96h174.69v94.28H0v-110.48l201.87-127.25v-15.04H0V.02h312.93Z"/>
    <path class="cls-1" d="M366.14,347.07v-94.28h198.98v-34.13l-9.25-9.83h-189.73V.02h310.04v94.28h-199.56v31.24h149.24l50.32,50.32v171.22h-310.04Z"/>
    <path class="cls-1" d="M728.81,347.07V.02h345.32v347.06h-345.32ZM839.87,252.79h123.21V94.3h-123.21v158.49Z"/>
  </g>
</svg>